STARTFONT 2.3
FONT -FontForge-Shadows Into Light-Book-R-Normal--9-90-72-72-P-36-ISO10646-1
SIZE 9 72 72  2
FONTBOUNDINGBOX 13 15 -2 -4
COMMENT "Generated by fontforge, http://fontforge.sourceforge.net"
COMMENT "Copyright (c) 2010, Kimberly Geswein (kimberlygeswein.com)"
STARTPROPERTIES 40
FOUNDRY "FontForge"
FAMILY_NAME "Shadows Into Light"
WEIGHT_NAME "Book"
SLANT "R"
SETWIDTH_NAME "Normal"
ADD_STYLE_NAME ""
PIXEL_SIZE 9
POINT_SIZE 90
RESOLUTION_X 72
RESOLUTION_Y 72
SPACING "P"
AVERAGE_WIDTH 36
CHARSET_REGISTRY "ISO10646"
CHARSET_ENCODING "1"
FONTNAME_REGISTRY ""
CHARSET_COLLECTIONS "ISO8859-2 ISO8859-9 ISO8859-4 ISO10646-1"
BITS_PER_PIXEL 2
FONT_NAME "ShadowsIntoLight"
FACE_NAME "Shadows Into Light"
COPYRIGHT "Copyright (c) 2010, Kimberly Geswein (kimberlygeswein.com)"
FONT_VERSION "001.000"
FONT_ASCENT 7
FONT_DESCENT 2
UNDERLINE_POSITION 0
UNDERLINE_THICKNESS 0
X_HEIGHT 5
CAP_HEIGHT 5
RAW_ASCENT 799
RAW_DESCENT 200
NORM_SPACE 4
RELATIVE_WEIGHT 40
RELATIVE_SETWIDTH 50
SUPERSCRIPT_X 0
SUPERSCRIPT_Y 4
SUPERSCRIPT_SIZE 5
SUBSCRIPT_X 0
SUBSCRIPT_Y 1
SUBSCRIPT_SIZE 5
AVG_LOWERCASE_WIDTH 32
AVG_UPPERCASE_WIDTH 42
ENDPROPERTIES
CHARS 352
STARTCHAR space
ENCODING 32
SWIDTH 450 0
DWIDTH 4 0
BBX 1 1 0 0
BITMAP
00
ENDCHAR
STARTCHAR exclam
ENCODING 33
SWIDTH 137 0
DWIDTH 1 0
BBX 1 5 0 3
BITMAP
40
40
40
40
40
ENDCHAR
STARTCHAR quotedbl
ENCODING 34
SWIDTH 212 0
DWIDTH 2 0
BBX 2 2 0 5
BITMAP
50
50
ENDCHAR
STARTCHAR numbersign
ENCODING 35
SWIDTH 450 0
DWIDTH 4 0
BBX 4 5 0 1
BITMAP
04
18
69
28
64
ENDCHAR
STARTCHAR dollar
ENCODING 36
SWIDTH 445 0
DWIDTH 4 0
BBX 4 8 0 -1
BITMAP
10
14
60
94
15
18
14
04
ENDCHAR
STARTCHAR percent
ENCODING 37
SWIDTH 450 0
DWIDTH 4 0
BBX 4 7 0 0
BITMAP
04
94
54
11
12
11
10
ENDCHAR
STARTCHAR ampersand
ENCODING 38
SWIDTH 356 0
DWIDTH 3 0
BBX 3 4 0 1
BITMAP
10
64
60
50
ENDCHAR
STARTCHAR quotesingle
ENCODING 39
SWIDTH 155 0
DWIDTH 1 0
BBX 1 3 0 3
BITMAP
40
80
40
ENDCHAR
STARTCHAR parenleft
ENCODING 40
SWIDTH 291 0
DWIDTH 3 0
BBX 2 7 0 0
BITMAP
10
10
40
40
40
40
10
ENDCHAR
STARTCHAR parenright
ENCODING 41
SWIDTH 241 0
DWIDTH 2 0
BBX 2 7 0 0
BITMAP
40
10
10
10
10
10
10
ENDCHAR
STARTCHAR asterisk
ENCODING 42
SWIDTH 481 0
DWIDTH 4 0
BBX 4 4 0 1
BITMAP
10
69
68
55
ENDCHAR
STARTCHAR plus
ENCODING 43
SWIDTH 466 0
DWIDTH 4 0
BBX 4 4 0 1
BITMAP
10
15
64
10
ENDCHAR
STARTCHAR comma
ENCODING 44
SWIDTH 112 0
DWIDTH 1 0
BBX 1 2 0 -1
BITMAP
80
40
ENDCHAR
STARTCHAR hyphen
ENCODING 45
SWIDTH 399 0
DWIDTH 4 0
BBX 4 2 0 1
BITMAP
19
40
ENDCHAR
STARTCHAR period
ENCODING 46
SWIDTH 128 0
DWIDTH 1 0
BBX 1 1 0 0
BITMAP
40
ENDCHAR
STARTCHAR slash
ENCODING 47
SWIDTH 306 0
DWIDTH 3 0
BBX 3 7 0 -1
BITMAP
04
10
10
10
40
40
40
ENDCHAR
STARTCHAR zero
ENCODING 48
SWIDTH 308 0
DWIDTH 3 0
BBX 3 5 0 0
BITMAP
10
44
44
44
60
ENDCHAR
STARTCHAR one
ENCODING 49
SWIDTH 112 0
DWIDTH 1 0
BBX 1 6 0 0
BITMAP
40
40
40
40
40
40
ENDCHAR
STARTCHAR two
ENCODING 50
SWIDTH 512 0
DWIDTH 5 0
BBX 4 5 0 0
BITMAP
54
44
04
11
25
ENDCHAR
STARTCHAR three
ENCODING 51
SWIDTH 461 0
DWIDTH 4 0
BBX 4 6 0 0
BITMAP
58
14
25
01
05
14
ENDCHAR
STARTCHAR four
ENCODING 52
SWIDTH 503 0
DWIDTH 5 0
BBX 4 7 0 0
BITMAP
05
09
15
56
55
05
04
ENDCHAR
STARTCHAR five
ENCODING 53
SWIDTH 478 0
DWIDTH 4 0
BBX 4 6 0 0
BITMAP
95
80
98
44
08
10
ENDCHAR
STARTCHAR six
ENCODING 54
SWIDTH 375 0
DWIDTH 3 0
BBX 3 7 0 0
BITMAP
10
40
40
44
54
94
60
ENDCHAR
STARTCHAR seven
ENCODING 55
SWIDTH 458 0
DWIDTH 4 0
BBX 4 7 0 0
BITMAP
15
51
04
04
04
04
08
ENDCHAR
STARTCHAR eight
ENCODING 56
SWIDTH 333 0
DWIDTH 3 0
BBX 3 6 0 0
BITMAP
64
44
54
20
14
54
ENDCHAR
STARTCHAR nine
ENCODING 57
SWIDTH 475 0
DWIDTH 4 0
BBX 4 6 0 0
BITMAP
1A
49
A1
41
01
01
ENDCHAR
STARTCHAR colon
ENCODING 58
SWIDTH 120 0
DWIDTH 1 0
BBX 1 3 0 1
BITMAP
40
00
40
ENDCHAR
STARTCHAR semicolon
ENCODING 59
SWIDTH 121 0
DWIDTH 1 0
BBX 1 4 0 -1
BITMAP
40
00
80
40
ENDCHAR
STARTCHAR less
ENCODING 60
SWIDTH 409 0
DWIDTH 4 0
BBX 4 5 0 1
BITMAP
01
08
50
60
05
ENDCHAR
STARTCHAR equal
ENCODING 61
SWIDTH 433 0
DWIDTH 4 0
BBX 4 2 0 1
BITMAP
54
55
ENDCHAR
STARTCHAR greater
ENCODING 62
SWIDTH 450 0
DWIDTH 4 0
BBX 4 5 0 1
BITMAP
50
09
05
14
50
ENDCHAR
STARTCHAR question
ENCODING 63
SWIDTH 445 0
DWIDTH 4 0
BBX 4 9 0 0
BITMAP
04
56
01
08
20
24
00
00
10
ENDCHAR
STARTCHAR at
ENCODING 64
SWIDTH 945 0
DWIDTH 9 0
BBX 8 8 0 0
BITMAP
0154
0405
1181
5581
8554
8400
4005
1554
ENDCHAR
STARTCHAR A
ENCODING 65
SWIDTH 390 0
DWIDTH 4 0
BBX 4 7 0 0
BITMAP
10
60
54
45
98
84
41
ENDCHAR
STARTCHAR B
ENCODING 66
SWIDTH 537 0
DWIDTH 5 0
BBX 5 7 0 0
BITMAP
0500
9100
4900
6440
5100
1800
1000
ENDCHAR
STARTCHAR C
ENCODING 67
SWIDTH 487 0
DWIDTH 4 0
BBX 4 7 0 0
BITMAP
04
10
50
40
41
42
54
ENDCHAR
STARTCHAR D
ENCODING 68
SWIDTH 554 0
DWIDTH 5 0
BBX 5 7 0 0
BITMAP
1000
6540
1040
1040
1200
1800
1400
ENDCHAR
STARTCHAR E
ENCODING 69
SWIDTH 474 0
DWIDTH 4 0
BBX 4 7 0 0
BITMAP
44
A4
40
54
50
55
60
ENDCHAR
STARTCHAR F
ENCODING 70
SWIDTH 428 0
DWIDTH 4 0
BBX 4 6 0 0
BITMAP
94
80
81
94
80
40
ENDCHAR
STARTCHAR G
ENCODING 71
SWIDTH 591 0
DWIDTH 5 0
BBX 5 7 0 -1
BITMAP
0500
1000
1180
4180
4240
6840
0040
ENDCHAR
STARTCHAR H
ENCODING 72
SWIDTH 424 0
DWIDTH 4 0
BBX 4 6 0 0
BITMAP
44
44
49
95
41
41
ENDCHAR
STARTCHAR I
ENCODING 73
SWIDTH 153 0
DWIDTH 1 0
BBX 1 7 0 0
BITMAP
40
40
40
40
40
40
40
ENDCHAR
STARTCHAR J
ENCODING 74
SWIDTH 371 0
DWIDTH 3 0
BBX 3 7 0 -1
BITMAP
04
04
08
04
04
44
14
ENDCHAR
STARTCHAR K
ENCODING 75
SWIDTH 524 0
DWIDTH 5 0
BBX 5 6 0 0
BITMAP
4100
4800
5000
6000
6540
1000
ENDCHAR
STARTCHAR L
ENCODING 76
SWIDTH 537 0
DWIDTH 5 0
BBX 5 6 0 0
BITMAP
4000
8000
8000
8000
8140
A400
ENDCHAR
STARTCHAR M
ENCODING 77
SWIDTH 682 0
DWIDTH 6 0
BBX 6 7 0 0
BITMAP
9040
6090
5450
4910
4610
5010
5020
ENDCHAR
STARTCHAR N
ENCODING 78
SWIDTH 541 0
DWIDTH 5 0
BBX 5 7 0 0
BITMAP
0100
4140
A140
5540
4540
5240
1040
ENDCHAR
STARTCHAR O
ENCODING 79
SWIDTH 382 0
DWIDTH 3 0
BBX 4 6 0 0
BITMAP
28
45
45
44
48
64
ENDCHAR
STARTCHAR P
ENCODING 80
SWIDTH 508 0
DWIDTH 5 0
BBX 5 7 0 0
BITMAP
6640
4140
4500
6000
5000
5000
1000
ENDCHAR
STARTCHAR Q
ENCODING 81
SWIDTH 512 0
DWIDTH 5 0
BBX 4 7 0 0
BITMAP
25
51
41
45
46
42
15
ENDCHAR
STARTCHAR R
ENCODING 82
SWIDTH 503 0
DWIDTH 5 0
BBX 5 7 0 0
BITMAP
9600
8100
5400
9000
5800
4140
4000
ENDCHAR
STARTCHAR S
ENCODING 83
SWIDTH 541 0
DWIDTH 5 0
BBX 5 7 0 0
BITMAP
0500
1000
4000
4000
1540
0140
1400
ENDCHAR
STARTCHAR T
ENCODING 84
SWIDTH 595 0
DWIDTH 5 0
BBX 6 7 0 0
BITMAP
0050
5A40
0100
0100
0100
0200
0100
ENDCHAR
STARTCHAR U
ENCODING 85
SWIDTH 450 0
DWIDTH 4 0
BBX 4 7 0 -1
BITMAP
41
82
82
46
45
55
01
ENDCHAR
STARTCHAR V
ENCODING 86
SWIDTH 524 0
DWIDTH 5 0
BBX 5 7 0 0
BITMAP
0040
0140
8100
5200
2200
1500
0900
ENDCHAR
STARTCHAR W
ENCODING 87
SWIDTH 878 0
DWIDTH 8 0
BBX 8 7 0 0
BITMAP
0001
4041
4184
5144
2114
2424
1800
ENDCHAR
STARTCHAR X
ENCODING 88
SWIDTH 461 0
DWIDTH 4 0
BBX 4 6 0 0
BITMAP
41
14
14
24
54
41
ENDCHAR
STARTCHAR Y
ENCODING 89
SWIDTH 483 0
DWIDTH 4 0
BBX 4 7 0 0
BITMAP
01
41
51
19
08
04
14
ENDCHAR
STARTCHAR Z
ENCODING 90
SWIDTH 670 0
DWIDTH 6 0
BBX 6 6 0 0
BITMAP
1580
0200
0500
1400
2000
AA90
ENDCHAR
STARTCHAR bracketleft
ENCODING 91
SWIDTH 470 0
DWIDTH 4 0
BBX 4 11 0 -1
BITMAP
94
40
40
40
40
40
50
50
10
10
25
ENDCHAR
STARTCHAR backslash
ENCODING 92
SWIDTH 554 0
DWIDTH 5 0
BBX 5 9 0 0
BITMAP
8000
1000
1000
1400
0800
0500
0200
0140
0080
ENDCHAR
STARTCHAR bracketright
ENCODING 93
SWIDTH 512 0
DWIDTH 5 0
BBX 5 12 0 -1
BITMAP
5600
0200
0200
0200
0100
0100
0100
0100
0100
0140
0140
0640
ENDCHAR
STARTCHAR asciicircum
ENCODING 94
SWIDTH 390 0
DWIDTH 4 0
BBX 4 3 0 6
BITMAP
10
24
45
ENDCHAR
STARTCHAR underscore
ENCODING 95
SWIDTH 612 0
DWIDTH 6 0
BBX 5 2 0 0
BITMAP
0140
6900
ENDCHAR
STARTCHAR grave
ENCODING 96
SWIDTH 155 0
DWIDTH 1 0
BBX 1 2 0 5
BITMAP
40
40
ENDCHAR
STARTCHAR a
ENCODING 97
SWIDTH 366 0
DWIDTH 3 0
BBX 3 5 0 0
BITMAP
18
58
98
64
84
ENDCHAR
STARTCHAR b
ENCODING 98
SWIDTH 442 0
DWIDTH 4 0
BBX 4 8 0 0
BITMAP
40
80
80
49
A1
82
48
A0
ENDCHAR
STARTCHAR c
ENCODING 99
SWIDTH 390 0
DWIDTH 4 0
BBX 3 6 0 0
BITMAP
10
64
40
40
44
54
ENDCHAR
STARTCHAR d
ENCODING 100
SWIDTH 316 0
DWIDTH 3 0
BBX 3 9 0 -1
BITMAP
04
04
04
24
84
44
54
94
04
ENDCHAR
STARTCHAR e
ENCODING 101
SWIDTH 461 0
DWIDTH 4 0
BBX 4 5 0 0
BITMAP
18
58
90
42
54
ENDCHAR
STARTCHAR f
ENCODING 102
SWIDTH 345 0
DWIDTH 3 0
BBX 3 8 0 0
BITMAP
24
20
10
14
60
10
20
10
ENDCHAR
STARTCHAR g
ENCODING 103
SWIDTH 437 0
DWIDTH 4 0
BBX 4 9 0 -4
BITMAP
19
19
45
A2
42
02
01
08
14
ENDCHAR
STARTCHAR h
ENCODING 104
SWIDTH 466 0
DWIDTH 4 0
BBX 4 7 0 0
BITMAP
40
40
45
9A
A2
92
42
ENDCHAR
STARTCHAR i
ENCODING 105
SWIDTH 132 0
DWIDTH 1 0
BBX 1 7 0 0
BITMAP
40
00
40
80
40
40
40
ENDCHAR
STARTCHAR j
ENCODING 106
SWIDTH 112 0
DWIDTH 1 0
BBX 3 8 -2 -3
BITMAP
04
04
04
04
04
04
04
54
ENDCHAR
STARTCHAR k
ENCODING 107
SWIDTH 428 0
DWIDTH 4 0
BBX 4 7 0 0
BITMAP
40
80
85
88
A0
90
55
ENDCHAR
STARTCHAR l
ENCODING 108
SWIDTH 137 0
DWIDTH 1 0
BBX 1 8 0 0
BITMAP
40
40
40
40
40
40
40
40
ENDCHAR
STARTCHAR m
ENCODING 109
SWIDTH 579 0
DWIDTH 5 0
BBX 5 6 0 0
BITMAP
4000
4100
6680
5940
5840
4040
ENDCHAR
STARTCHAR n
ENCODING 110
SWIDTH 483 0
DWIDTH 4 0
BBX 4 5 0 0
BITMAP
49
91
92
91
51
ENDCHAR
STARTCHAR o
ENCODING 111
SWIDTH 266 0
DWIDTH 2 0
BBX 3 5 0 0
BITMAP
60
54
54
50
90
ENDCHAR
STARTCHAR p
ENCODING 112
SWIDTH 482 0
DWIDTH 4 0
BBX 4 8 0 -3
BITMAP
45
91
85
A4
90
40
40
40
ENDCHAR
STARTCHAR q
ENCODING 113
SWIDTH 408 0
DWIDTH 4 0
BBX 4 7 0 -3
BITMAP
28
48
49
51
01
01
01
ENDCHAR
STARTCHAR r
ENCODING 114
SWIDTH 396 0
DWIDTH 4 0
BBX 3 5 0 0
BITMAP
44
60
50
60
50
ENDCHAR
STARTCHAR s
ENCODING 115
SWIDTH 366 0
DWIDTH 3 0
BBX 3 5 0 0
BITMAP
14
50
94
58
14
ENDCHAR
STARTCHAR t
ENCODING 116
SWIDTH 268 0
DWIDTH 2 0
BBX 3 7 0 0
BITMAP
40
40
A4
80
40
40
40
ENDCHAR
STARTCHAR u
ENCODING 117
SWIDTH 387 0
DWIDTH 3 0
BBX 3 4 0 0
BITMAP
44
88
4C
68
ENDCHAR
STARTCHAR v
ENCODING 118
SWIDTH 354 0
DWIDTH 3 0
BBX 3 5 0 0
BITMAP
04
48
58
28
08
ENDCHAR
STARTCHAR w
ENCODING 119
SWIDTH 566 0
DWIDTH 5 0
BBX 5 5 0 0
BITMAP
4440
4840
2540
2580
1440
ENDCHAR
STARTCHAR x
ENCODING 120
SWIDTH 454 0
DWIDTH 4 0
BBX 4 7 0 -1
BITMAP
04
08
94
24
29
21
10
ENDCHAR
STARTCHAR y
ENCODING 121
SWIDTH 363 0
DWIDTH 3 0
BBX 3 8 0 -3
BITMAP
04
84
14
18
08
04
04
04
ENDCHAR
STARTCHAR z
ENCODING 122
SWIDTH 618 0
DWIDTH 6 0
BBX 6 5 0 0
BITMAP
0500
5500
0800
1400
2A90
ENDCHAR
STARTCHAR braceleft
ENCODING 123
SWIDTH 348 0
DWIDTH 3 0
BBX 3 9 0 -1
BITMAP
14
50
10
50
50
90
40
80
20
ENDCHAR
STARTCHAR bar
ENCODING 124
SWIDTH 137 0
DWIDTH 1 0
BBX 1 8 0 0
BITMAP
40
40
40
40
40
40
40
40
ENDCHAR
STARTCHAR braceright
ENCODING 125
SWIDTH 348 0
DWIDTH 3 0
BBX 3 9 0 -1
BITMAP
50
10
10
24
14
14
04
04
60
ENDCHAR
STARTCHAR asciitilde
ENCODING 126
SWIDTH 458 0
DWIDTH 4 0
BBX 4 2 0 5
BITMAP
10
59
ENDCHAR
STARTCHAR nonbreakingspace
ENCODING 160
SWIDTH 450 0
DWIDTH 4 0
BBX 1 1 0 0
BITMAP
00
ENDCHAR
STARTCHAR exclamdown
ENCODING 161
SWIDTH 137 0
DWIDTH 1 0
BBX 1 4 0 -1
BITMAP
40
40
40
40
ENDCHAR
STARTCHAR cent
ENCODING 162
SWIDTH 394 0
DWIDTH 4 0
BBX 3 7 0 -1
BITMAP
20
64
50
50
54
64
10
ENDCHAR
STARTCHAR sterling
ENCODING 163
SWIDTH 539 0
DWIDTH 5 0
BBX 5 6 0 0
BITMAP
0540
1000
6400
1000
1000
2940
ENDCHAR
STARTCHAR currency
ENCODING 164
SWIDTH 500 0
DWIDTH 5 0
BBX 4 5 0 1
BITMAP
11
29
11
25
59
ENDCHAR
STARTCHAR yen
ENCODING 165
SWIDTH 478 0
DWIDTH 4 0
BBX 3 7 1 0
BITMAP
88
A0
60
64
64
50
10
ENDCHAR
STARTCHAR brokenbar
ENCODING 166
SWIDTH 137 0
DWIDTH 1 0
BBX 1 8 0 0
BITMAP
40
40
40
40
40
40
40
40
ENDCHAR
STARTCHAR section
ENCODING 167
SWIDTH 366 0
DWIDTH 3 0
BBX 3 7 0 0
BITMAP
14
40
98
48
A8
58
14
ENDCHAR
STARTCHAR dieresis
ENCODING 168
SWIDTH 306 0
DWIDTH 3 0
BBX 2 1 0 6
BITMAP
50
ENDCHAR
STARTCHAR copyright
ENCODING 169
SWIDTH 485 0
DWIDTH 4 0
BBX 5 6 0 0
BITMAP
1900
6500
5140
5200
5A00
6400
ENDCHAR
STARTCHAR ordfeminine
ENCODING 170
SWIDTH 227 0
DWIDTH 2 0
BBX 2 3 0 1
BITMAP
10
50
90
ENDCHAR
STARTCHAR guillemotleft
ENCODING 171
SWIDTH 652 0
DWIDTH 6 0
BBX 5 5 0 1
BITMAP
0140
0940
5900
6600
0580
ENDCHAR
STARTCHAR logicalnot
ENCODING 172
SWIDTH 539 0
DWIDTH 5 0
BBX 4 3 1 1
BITMAP
55
01
01
ENDCHAR
STARTCHAR uni00AD
ENCODING 173
SWIDTH 399 0
DWIDTH 4 0
BBX 4 2 0 1
BITMAP
19
40
ENDCHAR
STARTCHAR registered
ENCODING 174
SWIDTH 382 0
DWIDTH 3 0
BBX 5 6 0 0
BITMAP
1900
5600
5540
6500
5200
6800
ENDCHAR
STARTCHAR macron
ENCODING 175
SWIDTH 399 0
DWIDTH 4 0
BBX 3 1 0 6
BITMAP
54
ENDCHAR
STARTCHAR degree
ENCODING 176
SWIDTH 201 0
DWIDTH 2 0
BBX 2 2 0 3
BITMAP
50
50
ENDCHAR
STARTCHAR plusminus
ENCODING 177
SWIDTH 466 0
DWIDTH 4 0
BBX 3 5 0 0
BITMAP
10
14
64
14
54
ENDCHAR
STARTCHAR twosuperior
ENCODING 178
SWIDTH 318 0
DWIDTH 3 0
BBX 2 3 0 1
BITMAP
50
10
50
ENDCHAR
STARTCHAR threesuperior
ENCODING 179
SWIDTH 280 0
DWIDTH 3 0
BBX 3 4 0 2
BITMAP
50
10
44
10
ENDCHAR
STARTCHAR acute
ENCODING 180
SWIDTH 155 0
DWIDTH 1 0
BBX 1 1 0 5
BITMAP
40
ENDCHAR
STARTCHAR mu
ENCODING 181
SWIDTH 387 0
DWIDTH 3 0
BBX 3 6 0 -1
BITMAP
44
88
88
9C
90
40
ENDCHAR
STARTCHAR paragraph
ENCODING 182
SWIDTH 447 0
DWIDTH 4 0
BBX 4 6 0 0
BITMAP
29
B9
59
09
05
05
ENDCHAR
STARTCHAR periodcentered
ENCODING 183
SWIDTH 128 0
DWIDTH 1 0
BBX 1 1 0 2
BITMAP
40
ENDCHAR
STARTCHAR cedilla
ENCODING 184
SWIDTH 322 0
DWIDTH 3 0
BBX 3 3 0 -3
BITMAP
50
14
24
ENDCHAR
STARTCHAR onesuperior
ENCODING 185
SWIDTH 112 0
DWIDTH 1 0
BBX 1 3 0 1
BITMAP
40
40
40
ENDCHAR
STARTCHAR ordmasculine
ENCODING 186
SWIDTH 212 0
DWIDTH 2 0
BBX 2 3 0 1
BITMAP
40
50
50
ENDCHAR
STARTCHAR guillemotright
ENCODING 187
SWIDTH 625 0
DWIDTH 6 0
BBX 5 5 0 1
BITMAP
5900
0980
0540
1600
5400
ENDCHAR
STARTCHAR onequarter
ENCODING 188
SWIDTH 678 0
DWIDTH 6 0
BBX 6 7 0 -1
BITMAP
0400
1440
5140
5590
5440
4040
4000
ENDCHAR
STARTCHAR onehalf
ENCODING 189
SWIDTH 693 0
DWIDTH 6 0
BBX 5 6 0 0
BITMAP
0400
4400
4900
5500
5100
1240
ENDCHAR
STARTCHAR threequarters
ENCODING 190
SWIDTH 868 0
DWIDTH 8 0
BBX 6 7 0 -1
BITMAP
1440
5490
2590
0760
1510
0110
0400
ENDCHAR
STARTCHAR questiondown
ENCODING 191
SWIDTH 541 0
DWIDTH 5 0
BBX 4 8 1 -1
BITMAP
10
00
00
14
20
40
45
54
ENDCHAR
STARTCHAR Agrave
ENCODING 192
SWIDTH 390 0
DWIDTH 4 0
BBX 4 8 0 0
BITMAP
10
20
20
54
55
59
45
41
ENDCHAR
STARTCHAR Aacute
ENCODING 193
SWIDTH 390 0
DWIDTH 4 0
BBX 4 9 0 0
BITMAP
10
50
10
60
54
45
98
84
41
ENDCHAR
STARTCHAR Acircumflex
ENCODING 194
SWIDTH 390 0
DWIDTH 4 0
BBX 4 9 0 0
BITMAP
50
44
10
60
54
45
98
84
41
ENDCHAR
STARTCHAR Atilde
ENCODING 195
SWIDTH 390 0
DWIDTH 4 0
BBX 4 10 0 0
BITMAP
50
58
00
10
60
54
45
98
84
41
ENDCHAR
STARTCHAR Adieresis
ENCODING 196
SWIDTH 390 0
DWIDTH 4 0
BBX 4 8 0 0
BITMAP
50
10
60
54
45
98
84
41
ENDCHAR
STARTCHAR Aring
ENCODING 197
SWIDTH 390 0
DWIDTH 4 0
BBX 4 8 0 0
BITMAP
A0
60
60
54
45
98
84
41
ENDCHAR
STARTCHAR AE
ENCODING 198
SWIDTH 708 0
DWIDTH 6 0
BBX 6 7 0 0
BITMAP
1450
6640
5800
4940
9D00
8550
4240
ENDCHAR
STARTCHAR Ccedilla
ENCODING 199
SWIDTH 487 0
DWIDTH 4 0
BBX 4 10 0 -3
BITMAP
04
10
50
40
41
42
54
10
18
19
ENDCHAR
STARTCHAR Egrave
ENCODING 200
SWIDTH 474 0
DWIDTH 4 0
BBX 4 9 0 0
BITMAP
10
10
44
A4
40
54
50
55
60
ENDCHAR
STARTCHAR Eacute
ENCODING 201
SWIDTH 474 0
DWIDTH 4 0
BBX 4 8 0 0
BITMAP
04
54
A4
40
54
50
55
60
ENDCHAR
STARTCHAR Ecircumflex
ENCODING 202
SWIDTH 474 0
DWIDTH 4 0
BBX 4 9 0 0
BITMAP
14
11
44
A4
40
54
50
55
60
ENDCHAR
STARTCHAR Edieresis
ENCODING 203
SWIDTH 474 0
DWIDTH 4 0
BBX 4 8 0 0
BITMAP
14
44
A4
40
54
50
55
60
ENDCHAR
STARTCHAR Igrave
ENCODING 204
SWIDTH 153 0
DWIDTH 1 0
BBX 1 9 0 0
BITMAP
40
40
40
40
40
40
40
40
40
ENDCHAR
STARTCHAR Iacute
ENCODING 205
SWIDTH 153 0
DWIDTH 1 0
BBX 1 8 0 0
BITMAP
40
40
40
40
40
40
40
40
ENDCHAR
STARTCHAR Icircumflex
ENCODING 206
SWIDTH 153 0
DWIDTH 1 0
BBX 4 10 -1 0
BITMAP
10
24
45
10
10
10
10
10
10
10
ENDCHAR
STARTCHAR Idieresis
ENCODING 207
SWIDTH 153 0
DWIDTH 1 0
BBX 2 8 0 0
BITMAP
50
40
40
40
40
40
40
40
ENDCHAR
STARTCHAR Eth
ENCODING 208
SWIDTH 554 0
DWIDTH 5 0
BBX 5 7 0 0
BITMAP
1000
6540
1040
1040
2600
6800
1400
ENDCHAR
STARTCHAR Ntilde
ENCODING 209
SWIDTH 541 0
DWIDTH 5 0
BBX 5 9 0 0
BITMAP
1000
5900
0100
4140
A140
5540
4540
5240
1040
ENDCHAR
STARTCHAR Ograve
ENCODING 210
SWIDTH 382 0
DWIDTH 3 0
BBX 4 8 0 0
BITMAP
04
04
28
45
45
44
48
64
ENDCHAR
STARTCHAR Oacute
ENCODING 211
SWIDTH 382 0
DWIDTH 3 0
BBX 4 8 0 0
BITMAP
10
10
28
45
45
44
48
64
ENDCHAR
STARTCHAR Ocircumflex
ENCODING 212
SWIDTH 382 0
DWIDTH 3 0
BBX 4 9 0 0
BITMAP
10
14
44
28
45
45
44
48
64
ENDCHAR
STARTCHAR Otilde
ENCODING 213
SWIDTH 382 0
DWIDTH 3 0
BBX 4 9 0 0
BITMAP
10
49
00
28
45
45
44
48
64
ENDCHAR
STARTCHAR Odieresis
ENCODING 214
SWIDTH 382 0
DWIDTH 3 0
BBX 4 8 0 0
BITMAP
14
00
28
45
45
44
48
64
ENDCHAR
STARTCHAR multiply
ENCODING 215
SWIDTH 454 0
DWIDTH 4 0
BBX 2 3 1 1
BITMAP
60
90
50
ENDCHAR
STARTCHAR Oslash
ENCODING 216
SWIDTH 382 0
DWIDTH 3 0
BBX 4 7 0 -1
BITMAP
28
59
55
54
58
64
40
ENDCHAR
STARTCHAR Ugrave
ENCODING 217
SWIDTH 450 0
DWIDTH 4 0
BBX 4 9 0 -1
BITMAP
10
00
41
82
82
46
45
55
01
ENDCHAR
STARTCHAR Uacute
ENCODING 218
SWIDTH 450 0
DWIDTH 4 0
BBX 4 8 0 -1
BITMAP
04
45
82
82
46
45
55
01
ENDCHAR
STARTCHAR Ucircumflex
ENCODING 219
SWIDTH 450 0
DWIDTH 4 0
BBX 4 9 0 -1
BITMAP
14
41
41
82
82
46
45
55
01
ENDCHAR
STARTCHAR Udieresis
ENCODING 220
SWIDTH 450 0
DWIDTH 4 0
BBX 4 8 0 -1
BITMAP
14
41
82
82
46
45
55
01
ENDCHAR
STARTCHAR Yacute
ENCODING 221
SWIDTH 483 0
DWIDTH 4 0
BBX 4 9 0 0
BITMAP
04
04
01
41
51
19
08
04
14
ENDCHAR
STARTCHAR Thorn
ENCODING 222
SWIDTH 398 0
DWIDTH 4 0
BBX 4 7 0 0
BITMAP
40
58
81
84
94
80
40
ENDCHAR
STARTCHAR germandbls
ENCODING 223
SWIDTH 537 0
DWIDTH 5 0
BBX 5 7 0 0
BITMAP
0500
9100
4900
6440
5100
1800
1000
ENDCHAR
STARTCHAR agrave
ENCODING 224
SWIDTH 366 0
DWIDTH 3 0
BBX 3 7 0 0
BITMAP
10
10
18
58
98
64
84
ENDCHAR
STARTCHAR aacute
ENCODING 225
SWIDTH 366 0
DWIDTH 3 0
BBX 3 6 0 0
BITMAP
10
18
58
98
64
84
ENDCHAR
STARTCHAR acircumflex
ENCODING 226
SWIDTH 366 0
DWIDTH 3 0
BBX 3 9 0 0
BITMAP
10
54
44
00
18
58
98
64
84
ENDCHAR
STARTCHAR atilde
ENCODING 227
SWIDTH 366 0
DWIDTH 3 0
BBX 4 7 0 0
BITMAP
10
59
18
58
98
64
84
ENDCHAR
STARTCHAR adieresis
ENCODING 228
SWIDTH 366 0
DWIDTH 3 0
BBX 3 7 0 0
BITMAP
14
00
18
58
98
64
84
ENDCHAR
STARTCHAR aring
ENCODING 229
SWIDTH 366 0
DWIDTH 3 0
BBX 3 6 0 0
BITMAP
28
28
58
98
64
84
ENDCHAR
STARTCHAR ae
ENCODING 230
SWIDTH 705 0
DWIDTH 6 0
BBX 6 5 0 0
BITMAP
1A90
5A40
9D10
6420
8540
ENDCHAR
STARTCHAR ccedilla
ENCODING 231
SWIDTH 390 0
DWIDTH 4 0
BBX 3 9 0 -3
BITMAP
10
64
40
40
44
54
20
18
14
ENDCHAR
STARTCHAR egrave
ENCODING 232
SWIDTH 461 0
DWIDTH 4 0
BBX 4 7 0 0
BITMAP
10
04
18
58
90
42
54
ENDCHAR
STARTCHAR eacute
ENCODING 233
SWIDTH 461 0
DWIDTH 4 0
BBX 4 7 0 0
BITMAP
04
04
18
58
90
42
54
ENDCHAR
STARTCHAR ecircumflex
ENCODING 234
SWIDTH 461 0
DWIDTH 4 0
BBX 4 8 0 0
BITMAP
14
41
00
18
58
90
42
54
ENDCHAR
STARTCHAR edieresis
ENCODING 235
SWIDTH 461 0
DWIDTH 4 0
BBX 4 7 0 0
BITMAP
14
00
18
58
90
42
54
ENDCHAR
STARTCHAR igrave
ENCODING 236
SWIDTH 132 0
DWIDTH 1 0
BBX 1 7 0 0
BITMAP
40
00
40
80
40
40
40
ENDCHAR
STARTCHAR iacute
ENCODING 237
SWIDTH 132 0
DWIDTH 1 0
BBX 1 7 0 0
BITMAP
40
00
40
80
40
40
40
ENDCHAR
STARTCHAR icircumflex
ENCODING 238
SWIDTH 132 0
DWIDTH 1 0
BBX 3 9 -1 0
BITMAP
10
54
44
00
10
20
10
10
10
ENDCHAR
STARTCHAR idieresis
ENCODING 239
SWIDTH 132 0
DWIDTH 1 0
BBX 2 7 0 0
BITMAP
50
00
40
80
40
40
40
ENDCHAR
STARTCHAR eth
ENCODING 240
SWIDTH 481 0
DWIDTH 4 0
BBX 4 5 0 0
BITMAP
04
19
25
49
28
ENDCHAR
STARTCHAR ntilde
ENCODING 241
SWIDTH 483 0
DWIDTH 4 0
BBX 4 8 0 0
BITMAP
10
5A
00
49
91
92
91
51
ENDCHAR
STARTCHAR ograve
ENCODING 242
SWIDTH 266 0
DWIDTH 2 0
BBX 3 7 0 0
BITMAP
40
10
60
54
54
50
90
ENDCHAR
STARTCHAR oacute
ENCODING 243
SWIDTH 266 0
DWIDTH 2 0
BBX 3 7 0 0
BITMAP
10
10
60
54
54
50
90
ENDCHAR
STARTCHAR ocircumflex
ENCODING 244
SWIDTH 266 0
DWIDTH 2 0
BBX 3 8 0 0
BITMAP
50
44
00
60
54
54
50
90
ENDCHAR
STARTCHAR otilde
ENCODING 245
SWIDTH 266 0
DWIDTH 2 0
BBX 3 7 0 0
BITMAP
40
68
60
54
54
50
90
ENDCHAR
STARTCHAR odieresis
ENCODING 246
SWIDTH 266 0
DWIDTH 2 0
BBX 3 7 0 0
BITMAP
50
00
60
54
54
50
90
ENDCHAR
STARTCHAR divide
ENCODING 247
SWIDTH 345 0
DWIDTH 3 0
BBX 3 3 0 1
BITMAP
10
54
10
ENDCHAR
STARTCHAR oslash
ENCODING 248
SWIDTH 266 0
DWIDTH 2 0
BBX 3 6 0 -1
BITMAP
60
64
64
90
90
40
ENDCHAR
STARTCHAR ugrave
ENCODING 249
SWIDTH 387 0
DWIDTH 3 0
BBX 3 7 0 0
BITMAP
10
10
00
44
88
4C
68
ENDCHAR
STARTCHAR uacute
ENCODING 250
SWIDTH 387 0
DWIDTH 3 0
BBX 3 7 0 0
BITMAP
04
10
00
44
88
4C
68
ENDCHAR
STARTCHAR ucircumflex
ENCODING 251
SWIDTH 387 0
DWIDTH 3 0
BBX 3 9 0 0
BITMAP
10
24
44
00
00
44
88
4C
68
ENDCHAR
STARTCHAR udieresis
ENCODING 252
SWIDTH 387 0
DWIDTH 3 0
BBX 3 7 0 0
BITMAP
14
00
00
44
88
4C
68
ENDCHAR
STARTCHAR yacute
ENCODING 253
SWIDTH 363 0
DWIDTH 3 0
BBX 3 9 0 -3
BITMAP
10
04
84
14
18
08
04
04
04
ENDCHAR
STARTCHAR thorn
ENCODING 254
SWIDTH 439 0
DWIDTH 4 0
BBX 4 6 0 0
BITMAP
45
91
44
64
40
40
ENDCHAR
STARTCHAR ydieresis
ENCODING 255
SWIDTH 363 0
DWIDTH 3 0
BBX 3 10 0 -3
BITMAP
14
00
04
84
14
18
08
04
04
04
ENDCHAR
STARTCHAR Amacron
ENCODING 256
SWIDTH 390 0
DWIDTH 4 0
BBX 4 8 0 0
BITMAP
54
10
60
54
45
98
84
41
ENDCHAR
STARTCHAR amacron
ENCODING 257
SWIDTH 366 0
DWIDTH 3 0
BBX 3 7 0 0
BITMAP
54
00
18
58
98
64
84
ENDCHAR
STARTCHAR Abreve
ENCODING 258
SWIDTH 390 0
DWIDTH 4 0
BBX 4 9 0 0
BITMAP
44
20
10
60
54
45
98
84
41
ENDCHAR
STARTCHAR abreve
ENCODING 259
SWIDTH 366 0
DWIDTH 3 0
BBX 3 7 0 0
BITMAP
04
14
18
58
98
64
84
ENDCHAR
STARTCHAR Aogonek
ENCODING 260
SWIDTH 390 0
DWIDTH 4 0
BBX 4 9 0 -2
BITMAP
10
60
54
45
98
84
41
04
09
ENDCHAR
STARTCHAR aogonek
ENCODING 261
SWIDTH 366 0
DWIDTH 3 0
BBX 4 7 0 -2
BITMAP
18
58
98
64
84
04
0A
ENDCHAR
STARTCHAR Cacute
ENCODING 262
SWIDTH 487 0
DWIDTH 4 0
BBX 4 8 0 0
BITMAP
04
18
10
50
40
41
42
54
ENDCHAR
STARTCHAR cacute
ENCODING 263
SWIDTH 390 0
DWIDTH 4 0
BBX 3 7 0 0
BITMAP
10
10
64
40
40
44
54
ENDCHAR
STARTCHAR Ccircumflex
ENCODING 264
SWIDTH 487 0
DWIDTH 4 0
BBX 4 9 0 0
BITMAP
14
51
04
10
50
40
41
42
54
ENDCHAR
STARTCHAR ccircumflex
ENCODING 265
SWIDTH 390 0
DWIDTH 4 0
BBX 3 9 0 0
BITMAP
10
24
44
10
64
40
40
44
54
ENDCHAR
STARTCHAR Cdotaccent
ENCODING 266
SWIDTH 487 0
DWIDTH 4 0
BBX 4 8 0 0
BITMAP
04
04
10
50
40
41
42
54
ENDCHAR
STARTCHAR cdotaccent
ENCODING 267
SWIDTH 390 0
DWIDTH 4 0
BBX 3 6 0 0
BITMAP
10
64
40
40
44
54
ENDCHAR
STARTCHAR Ccaron
ENCODING 268
SWIDTH 487 0
DWIDTH 4 0
BBX 4 8 0 0
BITMAP
15
18
10
50
40
41
42
54
ENDCHAR
STARTCHAR ccaron
ENCODING 269
SWIDTH 390 0
DWIDTH 4 0
BBX 3 7 0 0
BITMAP
54
10
64
40
40
44
54
ENDCHAR
STARTCHAR Dcaron
ENCODING 270
SWIDTH 554 0
DWIDTH 5 0
BBX 5 8 0 0
BITMAP
1100
1400
6540
1040
1040
1200
1800
1400
ENDCHAR
STARTCHAR Emacron
ENCODING 274
SWIDTH 474 0
DWIDTH 4 0
BBX 4 8 0 0
BITMAP
55
44
A4
40
54
50
55
60
ENDCHAR
STARTCHAR emacron
ENCODING 275
SWIDTH 461 0
DWIDTH 4 0
BBX 4 7 0 0
BITMAP
55
00
18
58
90
42
54
ENDCHAR
STARTCHAR Ebreve
ENCODING 276
SWIDTH 474 0
DWIDTH 4 0
BBX 4 9 0 0
BITMAP
14
14
44
A4
40
54
50
55
60
ENDCHAR
STARTCHAR ebreve
ENCODING 277
SWIDTH 461 0
DWIDTH 4 0
BBX 4 7 0 0
BITMAP
14
14
18
58
90
42
54
ENDCHAR
STARTCHAR Edotaccent
ENCODING 278
SWIDTH 474 0
DWIDTH 4 0
BBX 4 8 0 0
BITMAP
10
44
A4
40
54
50
55
60
ENDCHAR
STARTCHAR edotaccent
ENCODING 279
SWIDTH 461 0
DWIDTH 4 0
BBX 4 6 0 0
BITMAP
04
18
58
90
42
54
ENDCHAR
STARTCHAR Eogonek
ENCODING 280
SWIDTH 474 0
DWIDTH 4 0
BBX 4 8 0 -1
BITMAP
44
A4
40
54
50
55
64
09
ENDCHAR
STARTCHAR eogonek
ENCODING 281
SWIDTH 461 0
DWIDTH 4 0
BBX 4 7 0 -2
BITMAP
18
58
90
42
54
10
18
ENDCHAR
STARTCHAR Ecaron
ENCODING 282
SWIDTH 474 0
DWIDTH 4 0
BBX 4 8 0 0
BITMAP
14
54
A4
40
54
50
55
60
ENDCHAR
STARTCHAR ecaron
ENCODING 283
SWIDTH 461 0
DWIDTH 4 0
BBX 4 7 0 0
BITMAP
15
10
18
58
90
42
54
ENDCHAR
STARTCHAR Gcircumflex
ENCODING 284
SWIDTH 591 0
DWIDTH 5 0
BBX 5 10 0 -1
BITMAP
0400
1500
1100
0500
1000
1180
4180
4240
6840
0040
ENDCHAR
STARTCHAR gcircumflex
ENCODING 285
SWIDTH 437 0
DWIDTH 4 0
BBX 4 13 0 -4
BITMAP
10
14
41
00
19
19
45
A2
42
02
01
08
14
ENDCHAR
STARTCHAR Gbreve
ENCODING 286
SWIDTH 591 0
DWIDTH 5 0
BBX 5 9 0 -1
BITMAP
0500
0500
0500
1000
1180
4180
4240
6840
0040
ENDCHAR
STARTCHAR gbreve
ENCODING 287
SWIDTH 437 0
DWIDTH 4 0
BBX 4 12 0 -4
BITMAP
14
14
00
19
19
45
A2
42
02
01
08
14
ENDCHAR
STARTCHAR Gdotaccent
ENCODING 288
SWIDTH 591 0
DWIDTH 5 0
BBX 5 9 0 -1
BITMAP
0400
0000
0500
1400
1180
4080
4280
6880
0040
ENDCHAR
STARTCHAR gdotaccent
ENCODING 289
SWIDTH 437 0
DWIDTH 4 0
BBX 4 11 0 -4
BITMAP
04
00
19
19
45
A2
42
02
01
08
14
ENDCHAR
STARTCHAR Gcommaaccent
ENCODING 290
SWIDTH 591 0
DWIDTH 5 0
BBX 5 9 0 -3
BITMAP
0500
1000
1180
4180
4240
6840
0040
0800
0400
ENDCHAR
STARTCHAR Hcircumflex
ENCODING 292
SWIDTH 424 0
DWIDTH 4 0
BBX 4 10 0 0
BITMAP
10
24
44
00
44
44
49
95
41
41
ENDCHAR
STARTCHAR hcircumflex
ENCODING 293
SWIDTH 466 0
DWIDTH 4 0
BBX 4 9 0 0
BITMAP
04
09
51
40
45
9A
A2
92
42
ENDCHAR
STARTCHAR Hbar
ENCODING 294
SWIDTH 424 0
DWIDTH 4 0
BBX 4 6 0 0
BITMAP
44
99
45
95
41
41
ENDCHAR
STARTCHAR hbar
ENCODING 295
SWIDTH 466 0
DWIDTH 4 0
BBX 5 7 -1 0
BITMAP
1000
1000
6640
2680
2880
2480
1080
ENDCHAR
STARTCHAR Itilde
ENCODING 296
SWIDTH 153 0
DWIDTH 1 0
BBX 4 9 -1 0
BITMAP
50
59
10
10
10
10
10
10
10
ENDCHAR
STARTCHAR itilde
ENCODING 297
SWIDTH 132 0
DWIDTH 1 0
BBX 3 7 -1 0
BITMAP
A4
04
10
20
10
10
10
ENDCHAR
STARTCHAR imacron
ENCODING 299
SWIDTH 132 0
DWIDTH 1 0
BBX 3 7 -1 0
BITMAP
54
00
10
20
10
10
10
ENDCHAR
STARTCHAR Ibreve
ENCODING 300
SWIDTH 153 0
DWIDTH 1 0
BBX 2 9 0 0
BITMAP
10
50
40
40
40
40
40
40
40
ENDCHAR
STARTCHAR ibreve
ENCODING 301
SWIDTH 132 0
DWIDTH 1 0
BBX 3 7 -1 0
BITMAP
54
00
10
20
10
10
10
ENDCHAR
STARTCHAR Iogonek
ENCODING 302
SWIDTH 153 0
DWIDTH 1 0
BBX 2 9 0 -2
BITMAP
40
40
40
40
40
40
40
40
60
ENDCHAR
STARTCHAR iogonek
ENCODING 303
SWIDTH 132 0
DWIDTH 1 0
BBX 2 9 0 -2
BITMAP
40
00
40
80
40
40
40
40
90
ENDCHAR
STARTCHAR Idotaccent
ENCODING 304
SWIDTH 153 0
DWIDTH 1 0
BBX 1 8 0 0
BITMAP
40
40
40
40
40
40
40
40
ENDCHAR
STARTCHAR dotlessi
ENCODING 305
SWIDTH 132 0
DWIDTH 1 0
BBX 1 5 0 0
BITMAP
40
80
40
40
40
ENDCHAR
STARTCHAR Jcircumflex
ENCODING 308
SWIDTH 371 0
DWIDTH 3 0
BBX 4 9 0 -1
BITMAP
14
15
04
04
08
04
04
44
14
ENDCHAR
STARTCHAR jcircumflex
ENCODING 309
SWIDTH 112 0
DWIDTH 1 0
BBX 4 12 -2 -3
BITMAP
04
15
11
00
04
04
04
04
04
04
04
54
ENDCHAR
STARTCHAR Kcommaaccent
ENCODING 310
SWIDTH 524 0
DWIDTH 5 0
BBX 5 9 0 -3
BITMAP
4100
4800
5000
6000
6540
1000
0000
0800
0400
ENDCHAR
STARTCHAR kcommaaccent
ENCODING 311
SWIDTH 428 0
DWIDTH 4 0
BBX 4 10 0 -3
BITMAP
40
80
85
88
A0
90
55
00
14
10
ENDCHAR
STARTCHAR Lacute
ENCODING 313
SWIDTH 537 0
DWIDTH 5 0
BBX 5 7 0 0
BITMAP
0400
4400
8000
8000
8000
8140
A400
ENDCHAR
STARTCHAR lacute
ENCODING 314
SWIDTH 137 0
DWIDTH 1 0
BBX 1 10 0 0
BITMAP
40
40
40
40
40
40
40
40
40
40
ENDCHAR
STARTCHAR Lcommaaccent
ENCODING 315
SWIDTH 537 0
DWIDTH 5 0
BBX 5 9 0 -3
BITMAP
4000
8000
8000
8000
8140
A400
0000
0800
0400
ENDCHAR
STARTCHAR lcommaaccent
ENCODING 316
SWIDTH 137 0
DWIDTH 1 0
BBX 1 11 0 -3
BITMAP
40
40
40
40
40
40
40
40
00
80
40
ENDCHAR
STARTCHAR Lcaron
ENCODING 317
SWIDTH 537 0
DWIDTH 5 0
BBX 5 8 0 0
BITMAP
1400
1000
4000
8000
8000
8000
8140
A400
ENDCHAR
STARTCHAR Ldot
ENCODING 319
SWIDTH 537 0
DWIDTH 5 0
BBX 5 6 0 0
BITMAP
4000
8000
8000
8400
8140
A400
ENDCHAR
STARTCHAR ldot
ENCODING 320
SWIDTH 267 0
DWIDTH 2 0
BBX 2 8 0 0
BITMAP
40
40
40
40
40
50
40
40
ENDCHAR
STARTCHAR Lslash
ENCODING 321
SWIDTH 537 0
DWIDTH 5 0
BBX 5 6 0 0
BITMAP
4000
8000
8000
A400
8140
A400
ENDCHAR
STARTCHAR lslash
ENCODING 322
SWIDTH 137 0
DWIDTH 1 0
BBX 3 8 -1 0
BITMAP
10
10
10
10
10
28
60
10
ENDCHAR
STARTCHAR Nacute
ENCODING 323
SWIDTH 541 0
DWIDTH 5 0
BBX 5 8 0 0
BITMAP
0400
1100
4140
A140
5540
4540
5240
1040
ENDCHAR
STARTCHAR nacute
ENCODING 324
SWIDTH 483 0
DWIDTH 4 0
BBX 4 7 0 0
BITMAP
04
04
49
91
92
91
51
ENDCHAR
STARTCHAR Ncommaaccent
ENCODING 325
SWIDTH 541 0
DWIDTH 5 0
BBX 5 10 0 -3
BITMAP
0100
4140
A140
5540
4540
5240
1040
0000
0800
0400
ENDCHAR
STARTCHAR ncommaaccent
ENCODING 326
SWIDTH 483 0
DWIDTH 4 0
BBX 4 8 0 -3
BITMAP
49
91
92
91
51
00
04
04
ENDCHAR
STARTCHAR Ncaron
ENCODING 327
SWIDTH 541 0
DWIDTH 5 0
BBX 5 8 0 0
BITMAP
1500
0500
4140
A140
5540
4540
5240
1040
ENDCHAR
STARTCHAR ncaron
ENCODING 328
SWIDTH 483 0
DWIDTH 4 0
BBX 4 7 0 0
BITMAP
15
04
49
91
92
91
51
ENDCHAR
STARTCHAR napostrophe
ENCODING 329
SWIDTH 483 0
DWIDTH 4 0
BBX 4 8 0 0
BITMAP
20
10
00
49
91
92
91
51
ENDCHAR
STARTCHAR Omacron
ENCODING 332
SWIDTH 382 0
DWIDTH 3 0
BBX 4 8 0 0
BITMAP
15
00
28
45
45
44
48
64
ENDCHAR
STARTCHAR omacron
ENCODING 333
SWIDTH 266 0
DWIDTH 2 0
BBX 3 7 0 0
BITMAP
54
00
60
54
54
50
90
ENDCHAR
STARTCHAR Obreve
ENCODING 334
SWIDTH 382 0
DWIDTH 3 0
BBX 4 8 0 0
BITMAP
04
14
28
45
45
44
48
64
ENDCHAR
STARTCHAR obreve
ENCODING 335
SWIDTH 266 0
DWIDTH 2 0
BBX 3 7 0 0
BITMAP
44
50
60
54
54
50
90
ENDCHAR
STARTCHAR Ohungarumlaut
ENCODING 336
SWIDTH 382 0
DWIDTH 3 0
BBX 4 8 0 0
BITMAP
04
15
28
45
45
44
48
64
ENDCHAR
STARTCHAR ohungarumlaut
ENCODING 337
SWIDTH 266 0
DWIDTH 2 0
BBX 3 7 0 0
BITMAP
10
50
60
54
54
50
90
ENDCHAR
STARTCHAR OE
ENCODING 338
SWIDTH 732 0
DWIDTH 7 0
BBX 6 7 0 0
BITMAP
0010
2A40
4500
4550
4600
4A10
6640
ENDCHAR
STARTCHAR oe
ENCODING 339
SWIDTH 628 0
DWIDTH 6 0
BBX 6 5 0 0
BITMAP
6240
5940
5C10
5850
9540
ENDCHAR
STARTCHAR Racute
ENCODING 340
SWIDTH 503 0
DWIDTH 5 0
BBX 5 9 0 0
BITMAP
0400
0400
9600
8100
5400
9000
5800
4140
4000
ENDCHAR
STARTCHAR racute
ENCODING 341
SWIDTH 396 0
DWIDTH 4 0
BBX 3 7 0 0
BITMAP
04
10
44
60
50
60
50
ENDCHAR
STARTCHAR Rcommaaccent
ENCODING 342
SWIDTH 503 0
DWIDTH 5 0
BBX 5 10 0 -3
BITMAP
9600
8100
5400
9000
5800
4140
4000
0000
0800
0400
ENDCHAR
STARTCHAR rcommaaccent
ENCODING 343
SWIDTH 396 0
DWIDTH 4 0
BBX 3 8 0 -3
BITMAP
44
60
50
60
50
00
20
10
ENDCHAR
STARTCHAR Rcaron
ENCODING 344
SWIDTH 503 0
DWIDTH 5 0
BBX 5 9 0 0
BITMAP
1100
0400
9600
8100
5400
9000
5800
4140
4000
ENDCHAR
STARTCHAR rcaron
ENCODING 345
SWIDTH 396 0
DWIDTH 4 0
BBX 3 7 0 0
BITMAP
54
10
44
60
50
60
50
ENDCHAR
STARTCHAR Sacute
ENCODING 346
SWIDTH 541 0
DWIDTH 5 0
BBX 5 8 0 0
BITMAP
0400
0900
1000
4000
4000
1540
0140
1400
ENDCHAR
STARTCHAR sacute
ENCODING 347
SWIDTH 366 0
DWIDTH 3 0
BBX 3 6 0 0
BITMAP
10
14
50
94
58
14
ENDCHAR
STARTCHAR Scircumflex
ENCODING 348
SWIDTH 541 0
DWIDTH 5 0
BBX 5 10 0 0
BITMAP
0400
1500
1100
0500
1000
4000
4000
1540
0140
1400
ENDCHAR
STARTCHAR scircumflex
ENCODING 349
SWIDTH 366 0
DWIDTH 3 0
BBX 3 8 0 0
BITMAP
10
24
44
14
50
94
58
14
ENDCHAR
STARTCHAR Scedilla
ENCODING 350
SWIDTH 541 0
DWIDTH 5 0
BBX 5 10 0 -3
BITMAP
0500
1000
4000
4000
1540
0140
1500
0200
0180
0140
ENDCHAR
STARTCHAR scedilla
ENCODING 351
SWIDTH 366 0
DWIDTH 3 0
BBX 3 8 0 -3
BITMAP
14
50
94
58
14
20
18
18
ENDCHAR
STARTCHAR Scaron
ENCODING 352
SWIDTH 541 0
DWIDTH 5 0
BBX 5 8 0 0
BITMAP
1100
0900
1000
4000
4000
1540
0140
1400
ENDCHAR
STARTCHAR scaron
ENCODING 353
SWIDTH 366 0
DWIDTH 3 0
BBX 3 7 0 0
BITMAP
44
10
14
50
94
58
14
ENDCHAR
STARTCHAR Tcommaaccent
ENCODING 354
SWIDTH 595 0
DWIDTH 5 0
BBX 6 10 0 -3
BITMAP
0050
5A40
0100
0100
0100
0200
0100
0000
0100
0100
ENDCHAR
STARTCHAR tcommaaccent
ENCODING 355
SWIDTH 268 0
DWIDTH 2 0
BBX 3 10 0 -3
BITMAP
40
40
A4
80
40
40
40
00
10
10
ENDCHAR
STARTCHAR Tcaron
ENCODING 356
SWIDTH 595 0
DWIDTH 5 0
BBX 6 9 0 0
BITMAP
0440
0100
0050
5A40
0100
0100
0100
0200
0100
ENDCHAR
STARTCHAR Tbar
ENCODING 358
SWIDTH 595 0
DWIDTH 5 0
BBX 6 7 0 0
BITMAP
0050
5A40
0640
0100
0100
0200
0100
ENDCHAR
STARTCHAR Utilde
ENCODING 360
SWIDTH 450 0
DWIDTH 4 0
BBX 4 9 0 -1
BITMAP
10
49
41
82
82
46
45
55
01
ENDCHAR
STARTCHAR utilde
ENCODING 361
SWIDTH 387 0
DWIDTH 3 0
BBX 3 7 0 0
BITMAP
50
58
00
44
88
4C
68
ENDCHAR
STARTCHAR Umacron
ENCODING 362
SWIDTH 450 0
DWIDTH 4 0
BBX 4 8 0 -1
BITMAP
55
41
82
82
46
45
55
01
ENDCHAR
STARTCHAR umacron
ENCODING 363
SWIDTH 387 0
DWIDTH 3 0
BBX 3 7 0 0
BITMAP
54
00
00
44
88
4C
68
ENDCHAR
STARTCHAR Ubreve
ENCODING 364
SWIDTH 450 0
DWIDTH 4 0
BBX 4 8 0 -1
BITMAP
14
55
82
82
46
45
55
01
ENDCHAR
STARTCHAR ubreve
ENCODING 365
SWIDTH 387 0
DWIDTH 3 0
BBX 3 7 0 0
BITMAP
04
14
00
44
88
4C
68
ENDCHAR
STARTCHAR Uring
ENCODING 366
SWIDTH 450 0
DWIDTH 4 0
BBX 4 8 0 -1
BITMAP
28
55
82
82
46
45
55
01
ENDCHAR
STARTCHAR uring
ENCODING 367
SWIDTH 387 0
DWIDTH 3 0
BBX 3 6 0 0
BITMAP
68
54
44
88
4C
68
ENDCHAR
STARTCHAR Uhungarumlaut
ENCODING 368
SWIDTH 450 0
DWIDTH 4 0
BBX 4 9 0 -1
BITMAP
14
14
41
82
82
46
45
55
01
ENDCHAR
STARTCHAR uhungarumlaut
ENCODING 369
SWIDTH 387 0
DWIDTH 3 0
BBX 3 6 0 0
BITMAP
10
54
44
88
4C
68
ENDCHAR
STARTCHAR Uogonek
ENCODING 370
SWIDTH 450 0
DWIDTH 4 0
BBX 5 9 0 -3
BITMAP
4100
8200
8200
4600
4500
5500
0200
0540
0100
ENDCHAR
STARTCHAR uogonek
ENCODING 371
SWIDTH 387 0
DWIDTH 3 0
BBX 4 6 0 -2
BITMAP
44
88
4C
68
08
09
ENDCHAR
STARTCHAR Wcircumflex
ENCODING 372
SWIDTH 878 0
DWIDTH 8 0
BBX 8 10 0 0
BITMAP
0100
0140
0410
0001
4041
4184
5144
2114
2424
1800
ENDCHAR
STARTCHAR wcircumflex
ENCODING 373
SWIDTH 566 0
DWIDTH 5 0
BBX 5 9 0 0
BITMAP
0400
1500
1100
0000
4440
4840
2540
2580
1440
ENDCHAR
STARTCHAR Ycircumflex
ENCODING 374
SWIDTH 483 0
DWIDTH 4 0
BBX 4 9 0 0
BITMAP
14
51
01
41
51
19
08
04
14
ENDCHAR
STARTCHAR ycircumflex
ENCODING 375
SWIDTH 363 0
DWIDTH 3 0
BBX 3 12 0 -3
BITMAP
10
54
44
00
04
84
14
18
08
04
04
04
ENDCHAR
STARTCHAR Ydieresis
ENCODING 376
SWIDTH 483 0
DWIDTH 4 0
BBX 4 7 0 0
BITMAP
15
41
51
19
08
04
14
ENDCHAR
STARTCHAR Zacute
ENCODING 377
SWIDTH 670 0
DWIDTH 6 0
BBX 6 8 0 0
BITMAP
0400
0000
1580
0200
0500
1400
2000
AA90
ENDCHAR
STARTCHAR zacute
ENCODING 378
SWIDTH 618 0
DWIDTH 6 0
BBX 6 7 0 0
BITMAP
0100
0400
0500
5500
0800
1400
2A90
ENDCHAR
STARTCHAR Zdotaccent
ENCODING 379
SWIDTH 670 0
DWIDTH 6 0
BBX 6 6 0 0
BITMAP
1580
0200
0500
1400
2000
AA90
ENDCHAR
STARTCHAR zdotaccent
ENCODING 380
SWIDTH 618 0
DWIDTH 6 0
BBX 6 6 0 0
BITMAP
0400
0500
5500
0800
1400
2A90
ENDCHAR
STARTCHAR Zcaron
ENCODING 381
SWIDTH 670 0
DWIDTH 6 0
BBX 6 8 0 0
BITMAP
0540
0500
1580
0200
0500
1400
2000
AA90
ENDCHAR
STARTCHAR zcaron
ENCODING 382
SWIDTH 618 0
DWIDTH 6 0
BBX 6 6 0 0
BITMAP
1100
0900
5500
0800
1400
2A90
ENDCHAR
STARTCHAR florin
ENCODING 402
SWIDTH 345 0
DWIDTH 3 0
BBX 3 11 0 -3
BITMAP
24
20
10
14
60
10
10
20
20
60
40
ENDCHAR
STARTCHAR AEacute
ENCODING 508
SWIDTH 708 0
DWIDTH 6 0
BBX 6 9 0 0
BITMAP
0400
0400
1450
6640
5800
4940
9D00
8550
4240
ENDCHAR
STARTCHAR aeacute
ENCODING 509
SWIDTH 705 0
DWIDTH 6 0
BBX 6 7 0 0
BITMAP
0100
0100
1A90
5A40
9D10
6420
8540
ENDCHAR
STARTCHAR Oslashacute
ENCODING 510
SWIDTH 382 0
DWIDTH 3 0
BBX 4 9 0 -1
BITMAP
04
14
28
59
55
54
58
64
40
ENDCHAR
STARTCHAR oslashacute
ENCODING 511
SWIDTH 266 0
DWIDTH 2 0
BBX 3 8 0 -1
BITMAP
10
10
60
64
64
90
90
40
ENDCHAR
STARTCHAR Scommaaccent
ENCODING 536
SWIDTH 541 0
DWIDTH 5 0
BBX 5 10 0 -3
BITMAP
0500
1000
4000
4000
1540
0140
1400
0000
0800
0400
ENDCHAR
STARTCHAR scommaaccent
ENCODING 537
SWIDTH 366 0
DWIDTH 3 0
BBX 3 8 0 -3
BITMAP
14
50
94
58
14
00
20
10
ENDCHAR
STARTCHAR circumflex
ENCODING 710
SWIDTH 390 0
DWIDTH 4 0
BBX 4 3 0 6
BITMAP
10
24
45
ENDCHAR
STARTCHAR caron
ENCODING 711
SWIDTH 390 0
DWIDTH 4 0
BBX 2 2 1 5
BITMAP
50
40
ENDCHAR
STARTCHAR breve
ENCODING 728
SWIDTH 390 0
DWIDTH 4 0
BBX 2 2 1 5
BITMAP
10
50
ENDCHAR
STARTCHAR dotaccent
ENCODING 729
SWIDTH 128 0
DWIDTH 1 0
BBX 1 1 0 5
BITMAP
40
ENDCHAR
STARTCHAR ring
ENCODING 730
SWIDTH 266 0
DWIDTH 2 0
BBX 2 2 0 4
BITMAP
A0
50
ENDCHAR
STARTCHAR ogonek
ENCODING 731
SWIDTH 366 0
DWIDTH 3 0
BBX 2 2 1 -2
BITMAP
80
90
ENDCHAR
STARTCHAR tilde
ENCODING 732
SWIDTH 458 0
DWIDTH 4 0
BBX 4 2 0 5
BITMAP
10
59
ENDCHAR
STARTCHAR hungarumlaut
ENCODING 733
SWIDTH 239 0
DWIDTH 2 0
BBX 2 2 0 4
BITMAP
50
50
ENDCHAR
STARTCHAR Wgrave
ENCODING 7808
SWIDTH 878 0
DWIDTH 8 0
BBX 8 9 0 0
BITMAP
0100
0040
0001
4041
4184
5144
2114
2424
1800
ENDCHAR
STARTCHAR wgrave
ENCODING 7809
SWIDTH 566 0
DWIDTH 5 0
BBX 5 7 0 0
BITMAP
0400
0400
4440
4840
2540
2580
1440
ENDCHAR
STARTCHAR Wacute
ENCODING 7810
SWIDTH 878 0
DWIDTH 8 0
BBX 8 8 0 0
BITMAP
0100
0001
4041
4184
5144
2114
2424
1800
ENDCHAR
STARTCHAR wacute
ENCODING 7811
SWIDTH 566 0
DWIDTH 5 0
BBX 5 6 0 0
BITMAP
0400
4440
4840
2540
2580
1440
ENDCHAR
STARTCHAR Wdieresis
ENCODING 7812
SWIDTH 878 0
DWIDTH 8 0
BBX 8 8 0 0
BITMAP
0140
0001
4041
4184
5144
2114
2424
1800
ENDCHAR
STARTCHAR wdieresis
ENCODING 7813
SWIDTH 566 0
DWIDTH 5 0
BBX 5 7 0 0
BITMAP
0500
0000
4440
4840
2540
2580
1440
ENDCHAR
STARTCHAR Ygrave
ENCODING 7922
SWIDTH 483 0
DWIDTH 4 0
BBX 4 9 0 0
BITMAP
10
04
01
41
51
19
08
04
14
ENDCHAR
STARTCHAR ygrave
ENCODING 7923
SWIDTH 363 0
DWIDTH 3 0
BBX 3 10 0 -3
BITMAP
10
10
04
84
14
18
08
04
04
04
ENDCHAR
STARTCHAR endash
ENCODING 8211
SWIDTH 399 0
DWIDTH 4 0
BBX 4 2 0 1
BITMAP
19
40
ENDCHAR
STARTCHAR emdash
ENCODING 8212
SWIDTH 549 0
DWIDTH 5 0
BBX 5 2 0 1
BITMAP
1640
5000
ENDCHAR
STARTCHAR quoteleft
ENCODING 8216
SWIDTH 155 0
DWIDTH 1 0
BBX 1 3 0 3
BITMAP
40
80
40
ENDCHAR
STARTCHAR quoteright
ENCODING 8217
SWIDTH 155 0
DWIDTH 1 0
BBX 1 3 0 3
BITMAP
40
80
40
ENDCHAR
STARTCHAR quotesinglbase
ENCODING 8218
SWIDTH 155 0
DWIDTH 1 0
BBX 1 3 0 0
BITMAP
40
80
40
ENDCHAR
STARTCHAR quotedblleft
ENCODING 8220
SWIDTH 212 0
DWIDTH 2 0
BBX 2 2 0 5
BITMAP
50
50
ENDCHAR
STARTCHAR quotedblright
ENCODING 8221
SWIDTH 212 0
DWIDTH 2 0
BBX 2 2 0 5
BITMAP
50
50
ENDCHAR
STARTCHAR quotedblbase
ENCODING 8222
SWIDTH 212 0
DWIDTH 2 0
BBX 2 3 0 0
BITMAP
40
50
50
ENDCHAR
STARTCHAR dagger
ENCODING 8224
SWIDTH 268 0
DWIDTH 2 0
BBX 3 7 0 0
BITMAP
40
40
A4
80
40
40
40
ENDCHAR
STARTCHAR daggerdbl
ENCODING 8225
SWIDTH 326 0
DWIDTH 3 0
BBX 3 7 0 0
BITMAP
10
10
64
64
60
10
10
ENDCHAR
STARTCHAR bullet
ENCODING 8226
SWIDTH 189 0
DWIDTH 2 0
BBX 2 1 0 2
BITMAP
90
ENDCHAR
STARTCHAR ellipsis
ENCODING 8230
SWIDTH 387 0
DWIDTH 3 0
BBX 3 1 0 0
BITMAP
54
ENDCHAR
STARTCHAR guilsinglleft
ENCODING 8249
SWIDTH 409 0
DWIDTH 4 0
BBX 4 5 0 1
BITMAP
01
08
50
60
05
ENDCHAR
STARTCHAR guilsinglright
ENCODING 8250
SWIDTH 450 0
DWIDTH 4 0
BBX 4 5 0 1
BITMAP
50
09
05
14
50
ENDCHAR
STARTCHAR fraction
ENCODING 8260
SWIDTH 306 0
DWIDTH 3 0
BBX 3 7 0 -1
BITMAP
04
10
10
10
40
40
40
ENDCHAR
STARTCHAR Euro
ENCODING 8364
SWIDTH 589 0
DWIDTH 5 0
BBX 5 7 0 0
BITMAP
0100
0400
1000
6400
2500
6040
1640
ENDCHAR
STARTCHAR trademark
ENCODING 8482
SWIDTH 1278 0
DWIDTH 12 0
BBX 11 7 0 0
BITMAP
005404
5A5914
010614
010554
010484
020804
010804
ENDCHAR
STARTCHAR minus
ENCODING 8722
SWIDTH 358 0
DWIDTH 3 0
BBX 3 1 0 2
BITMAP
54
ENDCHAR
STARTCHAR commaaccent
ENCODING 63171
SWIDTH 450 0
DWIDTH 4 0
BBX 1 2 1 -3
BITMAP
40
40
ENDCHAR
STARTCHAR fi
ENCODING 64257
SWIDTH 409 0
DWIDTH 4 0
BBX 4 8 0 0
BITMAP
24
24
10
19
65
15
25
15
ENDCHAR
STARTCHAR fl
ENCODING 64258
SWIDTH 416 0
DWIDTH 4 0
BBX 4 8 0 0
BITMAP
24
24
15
19
65
11
21
11
ENDCHAR
STARTCHAR .notdef
ENCODING -1
SWIDTH 450 0
DWIDTH 4 0
BBX 1 1 0 0
BITMAP
00
ENDCHAR
STARTCHAR .null
ENCODING -1
SWIDTH 0 0
DWIDTH 0 0
BBX 1 1 0 0
BITMAP
00
ENDCHAR
STARTCHAR nonmarkingreturn
ENCODING -1
SWIDTH 450 0
DWIDTH 4 0
BBX 1 1 0 0
BITMAP
00
ENDCHAR
ENDFONT
